<svg xmlns="http://www.w3.org/2000/svg" viewBox="0 0 400 400" fill="none">
  
  <rect width="400" height="400" fill="#F3EFE6"></rect>
  <g stroke="#1A1A1A" stroke-width="1.5" fill="none">
    
    <circle cx="200" cy="200" r="40" fill="#D97757" stroke="none"></circle>
    <g stroke="#1A1A1A">
      <line x1="200" y1="80" x2="200" y2="130"></line>
      <line x1="200" y1="270" x2="200" y2="320"></line>
      <line x1="80" y1="200" x2="130" y2="200"></line>
      <line x1="270" y1="200" x2="320" y2="200"></line>
      <line x1="115" y1="115" x2="150" y2="150"></line>
      <line x1="250" y1="250" x2="285" y2="285"></line>
      <line x1="115" y1="285" x2="150" y2="250"></line>
      <line x1="250" y1="150" x2="285" y2="115"></line>
    </g>
    
    <rect x="30" y="30" width="340" height="340" rx="8"></rect>
  </g>
  
  <g fill="#1A1A1A">
    <rect x="60" y="60" width="8" height="2"></rect>
    <rect x="72" y="60" width="4" height="2"></rect>
    <rect x="80" y="60" width="10" height="2"></rect>
    <rect x="332" y="338" width="8" height="2"></rect>
    <rect x="322" y="338" width="4" height="2"></rect>
    <rect x="310" y="338" width="10" height="2"></rect>
  </g>
</svg>