<svg xmlns="http://www.w3.org/2000/svg" viewBox="0 0 400 200" fill="none">
  <rect width="400" height="200" fill="#FAF7F2"></rect>
  
  <g fill="#1A1A1A">
    <circle cx="30" cy="40" r="1"></circle>
    <circle cx="80" cy="60" r="0.8"></circle>
    <circle cx="130" cy="30" r="1.2"></circle>
    <circle cx="180" cy="70" r="0.8"></circle>
    <circle cx="230" cy="45" r="1"></circle>
    <circle cx="280" cy="25" r="0.9"></circle>
    <circle cx="330" cy="60" r="1.1"></circle>
    <circle cx="370" cy="40" r="0.8"></circle>
    <circle cx="50" cy="120" r="0.8"></circle>
    <circle cx="100" cy="150" r="1"></circle>
    <circle cx="160" cy="130" r="0.9"></circle>
    <circle cx="220" cy="160" r="1.1"></circle>
    <circle cx="290" cy="140" r="0.8"></circle>
    <circle cx="340" cy="170" r="1"></circle>
    <circle cx="380" cy="120" r="0.9"></circle>
  </g>
  
  <g stroke="#8B7355" stroke-width="0.5" opacity="0.6">
    <line x1="80" y1="60" x2="130" y2="30"></line>
    <line x1="130" y1="30" x2="180" y2="70"></line>
    <line x1="180" y1="70" x2="230" y2="45"></line>
    <line x1="100" y1="150" x2="160" y2="130"></line>
    <line x1="160" y1="130" x2="220" y2="160"></line>
  </g>
</svg>